<?xml version="1.0" encoding="UTF-8"?> <svg xmlns="http://www.w3.org/2000/svg" width="180" height="54" viewBox="0 0 180 54" fill="none"><g clip-path="url(#clip0_1_1224)"><path d="M0.622407 0H53.195C53.527 0 53.8174 0.291667 53.8174 0.625V53.4167C53.8174 53.75 53.527 54.0417 53.195 54.0417H0.622407C0.290456 54.0417 0 53.75 0 53.4167V0.625C0 0.291667 0.290456 0 0.622407 0Z" fill="white"></path><path d="M67.5928 26.5833C67.5928 26.5 67.6343 26.4167 67.6758 26.375C67.7588 26.3333 67.8417 26.2917 67.9247 26.25C68.0492 26.2083 68.1322 26.2083 68.1737 26.1667C68.5471 26 68.8791 25.7917 69.128 25.5C69.377 25.2083 69.543 24.8333 69.5845 24.375C69.709 23.5 69.8334 22.0417 70.0409 20C70.2484 17.9583 70.3314 16.6667 70.3729 16.1667L70.4558 15.125C70.4558 15.0417 70.4973 14.7917 70.4973 14.3333C70.4973 13.7917 70.2899 13.4167 69.9164 13.2083C69.5015 13 69.0866 12.8333 68.7546 12.75C68.3397 12.625 68.1322 12.4583 68.1322 12.25C68.1322 12 68.3397 11.875 68.7131 11.875L70.3729 11.9167C72.1571 11.9583 73.07 12 73.1944 12C73.3189 12 73.4019 12.0417 73.5264 12.125C73.6509 12.2083 73.6924 12.2917 73.7339 12.4167C73.9828 13.125 74.1903 13.6667 74.3563 14.0833L77.6343 21.7917C77.6758 21.8333 77.7173 21.875 77.7173 21.875C77.7173 21.875 77.8002 21.8333 77.8002 21.7917L80.7878 14.625C80.9953 13.5 81.1612 12.75 81.2442 12.4583C81.2857 12.25 81.4517 12.1667 81.6177 12.1667H82.655C83.1114 12.1667 83.5264 12.125 83.8583 12.0833C84.1903 12.0417 84.4807 12.0417 84.7297 12C85.5181 11.9167 86.099 11.875 86.5139 11.875C86.9289 11.875 87.0949 12 87.0949 12.25C87.0949 12.375 87.0534 12.4583 86.9704 12.5417C86.8874 12.5833 86.7629 12.6667 86.5554 12.7083C86.431 12.75 86.348 12.7917 86.265 12.8333C86.182 12.875 86.099 12.9167 86.0575 12.9167C85.5596 13.125 85.2276 13.375 85.0617 13.6667C84.8542 13.9167 84.8127 14.3333 84.8127 14.875C84.9372 17.625 85.1032 20.5833 85.3106 23.7083L85.3936 24.625C85.4351 25.2917 86.016 25.7917 87.0119 26.0833C87.1778 26.125 87.3023 26.2083 87.3853 26.25C87.4683 26.2917 87.5098 26.4167 87.5098 26.5417C87.5098 26.6667 87.4683 26.75 87.3853 26.7917C87.3023 26.8333 87.2193 26.875 87.0949 26.875L85.1861 26.8333L83.4019 26.7917C83.1115 26.7917 82.572 26.7917 81.7837 26.8333C81.1612 26.875 80.5803 26.9167 79.9994 26.9167C79.8749 26.9167 79.7505 26.875 79.6675 26.8333C79.5845 26.7917 79.543 26.7083 79.543 26.5833C79.543 26.3333 79.709 26.1667 80.0409 26.0833C80.6218 25.9583 81.0368 25.7917 81.2442 25.5833C81.4517 25.375 81.5347 25.0833 81.5347 24.625C81.4932 23.625 81.4102 22 81.3687 19.7917C81.3687 18.9167 81.3272 17.7917 81.2442 16.4583C81.2442 16.375 81.2027 16.3333 81.1612 16.3333C81.1198 16.3333 81.0783 16.375 81.0368 16.5L76.9289 26.75C76.8459 26.9583 76.7214 27.0417 76.5969 27.0417C76.4724 27.0417 76.3065 26.9583 76.2235 26.7917C75.8915 26.0417 75.5596 25.375 75.2691 24.75C74.9787 24.125 74.7297 23.5833 74.4807 23.0833C73.1529 20.25 72.1571 18.0833 71.5762 16.5833C71.5347 16.4583 71.4517 16.4167 71.4102 16.4167C71.2857 16.4167 71.2027 16.5417 71.2027 16.7917C71.1612 17.5833 71.1197 18.5 71.1197 19.625L71.1612 22.25C71.1612 22.7917 71.2027 23.5 71.2027 24.4167C71.2027 24.8333 71.3272 25.1667 71.6177 25.4167C71.9081 25.6667 72.3231 25.875 72.9455 26C73.3604 26.125 73.5679 26.25 73.5679 26.4583C73.5679 26.5833 73.5264 26.6667 73.4019 26.7083C73.2774 26.75 73.1529 26.7917 73.0285 26.7917C72.572 26.7917 72.1156 26.7917 71.6592 26.75L70.7048 26.7083C70.2484 26.7083 69.7919 26.7083 69.2525 26.75C68.7131 26.7917 68.3812 26.7917 68.2152 26.7917C67.7587 26.9167 67.5928 26.8333 67.5928 26.5833Z" fill="white"></path><path d="M88.3398 26.5833C88.3398 26.4583 88.3813 26.3333 88.4643 26.2917C88.5473 26.2083 88.6718 26.1667 88.8378 26.0833C89.2942 25.9583 89.6676 25.7917 89.9996 25.5C90.3315 25.25 90.5805 24.9583 90.705 24.625C92.1573 21.2917 93.4436 18 94.5639 14.75C94.7299 14.25 94.8959 13.7917 94.9788 13.4167C95.1033 13 95.1448 12.8333 95.1863 12.8333C95.8502 12.6667 96.3896 12.5417 96.8876 12.375C97.1365 12.2917 97.3855 12.1667 97.593 12C97.8004 11.8333 98.0079 11.7083 98.1324 11.5833C98.2569 11.5417 98.3398 11.5 98.3398 11.5C98.4228 11.5 98.4643 11.5417 98.5058 11.6667C98.6303 11.875 98.7133 12.125 98.7548 12.2917C99.7091 15.375 100.705 18.625 101.867 22.0833L102.697 24.7083C102.904 25.4167 103.527 25.875 104.522 26.1667C104.688 26.2083 104.813 26.2917 104.896 26.3333C104.979 26.375 105.02 26.5 105.02 26.625C105.02 26.75 104.979 26.8333 104.896 26.875C104.813 26.9167 104.73 26.9583 104.605 26.9583C104.315 26.9583 103.693 26.9583 102.78 26.9167C101.825 26.875 101.203 26.875 100.829 26.875C100.539 26.875 99.9581 26.875 99.1282 26.9167C98.4228 26.9583 97.8004 27 97.2195 27C97.095 27 96.9706 26.9583 96.8876 26.9167C96.8046 26.875 96.7631 26.7917 96.7631 26.6667C96.7631 26.4167 96.9291 26.25 97.261 26.1667C97.8004 26.0417 98.1739 25.9167 98.4228 25.75C98.6718 25.5833 98.7963 25.375 98.7963 25.0833C98.7963 24.9167 98.7963 24.7917 98.7548 24.7083L98.0494 22.0833C98.0079 21.9583 97.9664 21.8333 97.9249 21.7917C97.8834 21.75 97.8004 21.7083 97.6759 21.7083H93.7755C93.6511 21.7083 93.5681 21.75 93.5266 21.7917C93.4851 21.8333 93.4436 21.9583 93.4021 22.0833L93.0701 23.0417C93.0286 23.2083 92.9457 23.4167 92.8627 23.7083C92.7797 24 92.6967 24.2083 92.6552 24.4167C92.6137 24.625 92.5722 24.8333 92.5722 25C92.5722 25.2917 92.6967 25.5 92.9042 25.6667C93.1116 25.8333 93.5266 25.9583 94.066 26.125C94.3979 26.2083 94.5639 26.375 94.5639 26.625C94.5639 26.8333 94.3979 26.9583 94.1075 26.9583C93.7755 26.9583 93.3191 26.9583 92.7797 26.9167L91.5764 26.875C91.1614 26.875 90.7465 26.9167 90.3315 26.9583C90.2071 26.9583 89.9996 27 89.7091 27C89.4187 27 89.2112 27.0417 89.0037 27.0417C88.5473 27 88.3398 26.875 88.3398 26.5833ZM97.261 20.3333C97.4685 20.3333 97.593 20.2917 97.593 20.1667C97.593 20.1667 97.593 20.0833 97.5515 19.9167L96.0992 14.875C96.0577 14.7083 96.0162 14.6667 95.9747 14.6667C95.9332 14.6667 95.8917 14.75 95.8502 14.875L94.1075 19.9167C94.066 19.9583 94.066 20.0417 94.066 20.0833C94.066 20.1667 94.1075 20.2083 94.1905 20.25C94.2735 20.2917 94.3564 20.2917 94.4809 20.2917L97.261 20.3333Z" fill="white"></path><path d="M116.929 26.7502C116.265 26.3752 115.643 25.7918 115.103 25.0835C114.564 24.3335 114.066 23.6252 113.651 22.9585C113.236 22.2918 112.821 21.5002 112.447 20.6252C112.282 20.2918 112.116 20.0835 111.908 19.9585C111.742 19.8335 111.576 19.7918 111.369 19.7918C111.203 19.7918 111.161 19.9585 111.161 20.2502V24.6668C111.161 25.1252 111.286 25.4585 111.535 25.6252C111.784 25.7918 112.24 25.9585 112.945 26.1252C113.111 26.1668 113.194 26.2085 113.277 26.2918C113.36 26.3752 113.36 26.4585 113.36 26.6252C113.36 26.8335 113.236 26.9585 112.987 26.9585L111.037 26.9168L109.211 26.8752C108.921 26.8752 108.381 26.8752 107.593 26.9168C106.97 26.9585 106.389 27.0002 105.808 27.0002C105.726 27.0002 105.643 26.9585 105.518 26.9168C105.435 26.8335 105.394 26.7502 105.394 26.6668C105.394 26.4168 105.518 26.2502 105.808 26.1668C106.389 26.0418 106.804 25.8752 107.012 25.7085C107.219 25.5002 107.302 25.2085 107.302 24.7502V14.3335C107.302 13.8335 107.219 13.5002 107.012 13.2918C106.846 13.0835 106.472 12.9168 105.933 12.7918C105.601 12.7085 105.477 12.5418 105.477 12.3335C105.477 12.2085 105.518 12.1252 105.601 12.0835C105.684 12.0002 105.808 12.0002 105.933 12.0002C106.472 12.0002 107.095 12.0418 107.759 12.0835C108.381 12.1252 108.838 12.1668 109.169 12.1668C109.46 12.1668 109.875 12.1252 110.414 12.0835C111.078 12.0002 111.742 11.9585 112.447 11.9585C114.273 11.9585 115.643 12.2502 116.597 12.8752C117.551 13.5002 118.049 14.3752 118.049 15.6252C118.049 16.5418 117.759 17.2918 117.178 17.8752C116.597 18.4585 115.891 18.8335 115.062 19.0835C115.02 19.0835 114.979 19.1252 114.979 19.2085C114.979 19.2502 114.979 19.3335 115.02 19.3752C115.767 20.5002 116.472 21.5002 117.095 22.3335C117.717 23.1668 118.34 23.8752 118.962 24.4585C119.418 24.9168 119.916 25.1668 120.414 25.2918C120.912 25.4168 121.535 25.4585 122.24 25.4585C122.448 25.4585 122.572 25.5835 122.572 25.8752C122.572 26.8752 121.618 27.4168 119.667 27.4168C118.506 27.3335 117.593 27.1668 116.929 26.7502ZM113.692 18.2085C114.107 17.7085 114.273 17.0002 114.273 16.0835C114.273 15.0418 114.066 14.2502 113.692 13.7502C113.277 13.2502 112.738 13.0002 111.991 13.0002C111.659 13.0002 111.452 13.1252 111.327 13.4168C111.203 13.7085 111.12 14.2502 111.12 15.0835V18.1252C111.12 18.7085 111.369 19.0002 111.908 19.0002C112.696 19.0002 113.319 18.7502 113.692 18.2085Z" fill="white"></path><path d="M124.979 26.8335C124.855 26.7502 124.813 26.6668 124.813 26.5835C124.813 26.3335 124.979 26.1668 125.311 26.0835C125.933 25.9585 126.348 25.7918 126.556 25.5835C126.763 25.3752 126.888 25.0835 126.888 24.6252V15.1668C126.888 14.3752 126.846 13.8752 126.805 13.6668C126.763 13.4585 126.68 13.2918 126.556 13.2085C126.39 13.0835 126.058 13.0418 125.643 13.0418H125.269C124.772 13.0418 124.315 13.1668 123.859 13.4168C123.402 13.6668 123.029 14.0002 122.738 14.3752C122.489 14.7085 122.24 15.0002 122.033 15.2502C121.825 15.4585 121.618 15.5835 121.411 15.5835C121.162 15.5835 121.037 15.4585 121.037 15.1668C121.037 14.9585 121.079 14.7502 121.203 14.5418C121.535 13.9168 121.743 13.3752 121.867 12.9585C121.991 12.5418 122.074 12.0835 122.157 11.5418C122.199 11.1668 122.406 10.9585 122.738 10.9585C122.821 10.9585 122.946 11.0835 123.153 11.3335C123.278 11.5002 123.402 11.6668 123.527 11.7502C123.651 11.8752 123.9 11.9585 124.274 12.0002C124.647 12.0835 124.938 12.0835 125.186 12.0835L133.859 12.0418C134.191 12.0418 134.481 12.0002 134.73 11.9585C134.979 11.8752 135.186 11.8335 135.311 11.7502C135.394 11.7085 135.56 11.5835 135.85 11.3335C136.099 11.0835 136.307 10.9585 136.473 10.9585C136.639 10.9585 136.763 11.0835 136.763 11.3335C136.763 11.4168 136.763 11.5418 136.722 11.7502C136.68 11.8752 136.639 12.0835 136.514 12.4585C136.39 12.8335 136.348 13.1668 136.265 13.5002C136.224 13.7918 136.182 14.0835 136.182 14.3335V14.7918C136.182 15.0835 136.141 15.2918 136.099 15.4168C136.058 15.5418 135.933 15.6252 135.809 15.6252C135.643 15.6252 135.518 15.5418 135.435 15.4168C135.352 15.2918 135.228 15.0418 135.145 14.7502C134.938 14.1252 134.689 13.6668 134.357 13.4168C134.025 13.1668 133.527 13.0002 132.904 13.0002H131.991C131.701 13.0002 131.494 13.0418 131.369 13.1668C131.245 13.2918 131.12 13.5418 131.037 13.8752C130.954 14.2085 130.913 14.7085 130.913 15.3752V24.5835C130.913 25.0002 131.037 25.2918 131.245 25.5002C131.452 25.7085 131.867 25.8752 132.489 26.0418C132.655 26.0835 132.78 26.1668 132.863 26.2085C132.946 26.2502 132.987 26.3752 132.987 26.5002C132.987 26.6252 132.946 26.7085 132.863 26.7502C132.78 26.7918 132.697 26.8335 132.572 26.8335C132.24 26.8335 131.618 26.8335 130.705 26.7918L128.962 26.7502C128.672 26.7502 128.133 26.7502 127.303 26.7918C126.639 26.8335 126.058 26.8752 125.477 26.8752C125.186 26.9168 125.062 26.9168 124.979 26.8335Z" fill="white"></path><path d="M137.551 26.8752C137.468 26.7918 137.427 26.7085 137.427 26.6252C137.427 26.5418 137.468 26.4585 137.551 26.3335C137.634 26.2502 137.759 26.1668 137.883 26.1252C138.423 25.9585 138.755 25.7918 138.962 25.6252C139.169 25.4585 139.252 25.1252 139.252 24.7085V14.3335C139.252 13.8335 139.169 13.5002 138.962 13.2918C138.755 13.0835 138.381 12.9168 137.759 12.7918C137.468 12.7085 137.344 12.5418 137.344 12.2918C137.344 12.2085 137.385 12.1252 137.468 12.0418C137.551 11.9585 137.634 11.9585 137.759 11.9585C138.298 11.9585 138.921 12.0002 139.543 12.0418C140.373 12.0835 140.912 12.0835 141.161 12.0835C141.452 12.0835 142.033 12.0835 142.862 12.0418C143.734 12.0002 144.356 12.0002 144.688 12.0002C144.937 12.0002 145.062 12.1252 145.062 12.3335C145.062 12.4585 145.02 12.5835 144.979 12.6252C144.896 12.7085 144.813 12.7502 144.647 12.7918C144.024 12.9585 143.609 13.1668 143.443 13.3752C143.277 13.5835 143.153 13.9168 143.153 14.3335V24.4585C143.153 24.8752 143.236 25.1668 143.402 25.3335C143.568 25.5002 143.858 25.6252 144.232 25.6252H146.431C147.012 25.6252 147.51 25.4168 148.008 25.0002C148.423 24.6252 148.838 24.0002 149.211 23.1668C149.377 22.8335 149.46 22.6252 149.543 22.5835C149.626 22.5002 149.709 22.4585 149.833 22.4585C149.958 22.4585 149.999 22.5002 150.082 22.6252C150.124 22.7085 150.165 22.8335 150.165 22.9585C150.165 23.0002 150.165 23.0835 150.124 23.1668C150.082 23.2502 150.082 23.3752 150.082 23.4585C149.875 24.2502 149.709 24.8752 149.626 25.2502C149.543 25.6252 149.46 26.0835 149.418 26.5835C149.377 26.8752 149.252 27.0002 149.045 27.0002L147.095 26.9585C144.813 26.9168 142.821 26.8752 141.203 26.8752C140.705 26.8752 140.124 26.9168 139.543 26.9585C138.755 27.0002 138.215 27.0002 137.925 27.0002C137.717 27.0002 137.634 26.9585 137.551 26.8752Z" fill="white"></path><path d="M151.203 26.8752C151.12 26.7918 151.078 26.7085 151.078 26.6252C151.078 26.5418 151.12 26.4585 151.203 26.3335C151.286 26.2502 151.41 26.1668 151.535 26.1252C152.074 25.9585 152.406 25.7918 152.613 25.6252C152.821 25.4585 152.904 25.1252 152.904 24.7085V14.3335C152.904 13.8335 152.821 13.5002 152.613 13.2918C152.447 13.0835 152.074 12.9168 151.535 12.7918C151.203 12.7085 151.078 12.5418 151.078 12.3335C151.078 12.2085 151.12 12.1252 151.203 12.0835C151.286 12.0002 151.41 12.0002 151.535 12.0002C152.074 12.0002 152.655 12.0418 153.236 12.0835C153.941 12.0835 154.481 12.0835 154.771 12.0835C156.804 12.0835 158.547 12.0418 160.041 12.0002C160.497 12.0002 160.912 11.9585 161.244 11.9168C161.576 11.8752 161.742 11.8335 161.784 11.8335C161.908 11.8335 162.032 11.8752 162.157 11.9585C162.281 12.0418 162.364 12.1668 162.364 12.3335C162.406 12.8335 162.489 13.2918 162.572 13.7085C162.696 14.5418 162.738 15.1252 162.738 15.3752C162.738 15.5002 162.696 15.6252 162.655 15.7085C162.613 15.7918 162.53 15.8335 162.447 15.8335C162.364 15.8335 162.281 15.7918 162.198 15.7502C162.115 15.6668 162.032 15.5835 161.991 15.4585C161.784 14.9168 161.576 14.5002 161.493 14.2918C161.369 14.0835 161.244 13.9168 161.12 13.7502C160.912 13.5418 160.663 13.3752 160.414 13.2085C160.165 13.0835 159.833 13.0002 159.46 13.0002H158.049C157.676 13.0002 157.344 13.0835 157.136 13.2918C156.887 13.5002 156.763 13.7502 156.763 14.0418V18.2085C156.763 18.5835 156.97 18.7502 157.344 18.7502H159.252C159.584 18.7502 159.875 18.6252 160.041 18.4168C160.207 18.2085 160.373 17.8335 160.58 17.3335C160.705 17.0418 160.871 16.9168 161.037 16.9168C161.12 16.9168 161.161 16.9585 161.244 17.0835C161.286 17.1668 161.327 17.2918 161.327 17.4585C161.244 18.1668 161.203 18.8335 161.203 19.3335C161.203 20.0002 161.244 20.6252 161.286 21.2085V21.3752C161.286 21.6668 161.203 21.8335 161.078 21.8335C160.954 21.8335 160.871 21.7918 160.746 21.6668C160.622 21.5418 160.58 21.4168 160.539 21.2918C160.414 20.7918 160.248 20.3752 160.082 20.1668C159.916 19.9168 159.667 19.7918 159.418 19.7918H157.261C156.929 19.7918 156.763 19.9585 156.763 20.3335V24.6252C156.763 25.0418 156.846 25.3335 157.012 25.5002C157.178 25.6668 157.468 25.7918 157.842 25.7918H159.875C160.58 25.7918 161.12 25.6252 161.535 25.2502C161.991 24.8752 162.406 24.2918 162.821 23.4168C162.904 23.2502 163.07 23.1252 163.236 23.1252C163.402 23.1252 163.443 23.2918 163.443 23.5835C163.443 23.8752 163.402 24.1668 163.319 24.4585C163.236 24.7918 163.111 25.2085 162.945 25.7085L162.696 26.5835C162.655 26.7502 162.447 26.8752 162.157 26.8752L161.286 26.8335C158.34 26.7918 156.14 26.7502 154.73 26.7502C154.232 26.7502 153.651 26.7918 153.07 26.8335C152.281 26.8752 151.742 26.8752 151.452 26.8752C151.369 27.0002 151.286 26.9585 151.203 26.8752Z" fill="white"></path><path d="M168.215 26.8752C168.09 26.7918 168.049 26.7085 168.049 26.5835C168.049 26.3335 168.256 26.1668 168.713 26.0835C169.252 25.9585 169.667 25.7918 169.875 25.5002C170.082 25.2085 170.207 24.8335 170.207 24.3335V21.2502C170.207 20.7502 170.165 20.2918 170.041 19.9585C169.916 19.6252 169.75 19.2502 169.46 18.7918L166.514 14.2085C166.265 13.8335 166.016 13.5002 165.767 13.2502C165.518 13.0002 165.186 12.8335 164.812 12.7502C164.646 12.7085 164.522 12.6252 164.439 12.5835C164.356 12.5418 164.314 12.4168 164.314 12.2918C164.314 12.1668 164.356 12.0835 164.439 12.0418C164.522 12.0002 164.605 11.9585 164.729 11.9585C165.061 11.9585 165.435 11.9585 165.808 12.0002C166.223 12.0418 166.514 12.0418 166.721 12.0418C167.343 12.0835 167.966 12.1252 168.63 12.1252C168.837 12.1252 169.128 12.1252 169.418 12.0835C169.709 12.0835 169.958 12.0418 170.124 12.0418C170.787 12.0002 171.327 11.9585 171.7 11.9585C171.825 11.9585 171.991 12.0002 172.115 12.0418C172.24 12.1252 172.323 12.2085 172.323 12.2918C172.323 12.5002 172.115 12.7085 171.7 12.7918C171.202 12.9168 170.87 13.0002 170.704 13.1252C170.539 13.2502 170.414 13.4168 170.414 13.7085C170.414 13.9585 170.497 14.2085 170.663 14.5002L173.028 18.5835C173.153 18.7918 173.236 18.8752 173.402 18.8752C173.526 18.8752 173.609 18.7918 173.734 18.5835C174.522 17.1252 175.186 15.8335 175.767 14.6252C175.933 14.2918 175.974 14.0002 175.974 13.7502C175.974 13.4585 175.85 13.2502 175.601 13.0835C175.352 12.9168 175.061 12.8335 174.688 12.7918C174.522 12.7918 174.356 12.7085 174.231 12.6252C174.065 12.5418 174.024 12.4168 174.024 12.2918C174.024 12.2085 174.107 12.1252 174.231 12.0835C174.356 12.0418 174.522 12.0002 174.688 12.0002C175.144 12.0002 175.559 12.0418 175.974 12.0835C176.472 12.1252 176.887 12.1252 177.136 12.1252C177.344 12.1252 177.675 12.0835 178.173 12.0418C178.671 12.0002 179.086 11.9585 179.418 11.9585C179.875 11.9585 180.082 12.0835 180.082 12.3335C180.082 12.4585 180.041 12.5418 179.958 12.5835C179.875 12.6252 179.792 12.6668 179.667 12.7085C179.584 12.7502 179.501 12.7502 179.46 12.7918C179.003 12.9168 178.63 13.0835 178.298 13.3335C177.966 13.5835 177.717 13.8752 177.509 14.2085C177.012 15.0418 176.597 15.6668 176.348 16.0835C175.518 17.4168 174.978 18.3335 174.729 18.7918C174.314 19.5418 174.107 20.2918 174.107 21.0418V24.3335C174.107 24.9168 174.19 25.2918 174.397 25.5418C174.605 25.7502 174.978 25.9585 175.601 26.1252C175.808 26.1668 176.016 26.2502 176.099 26.2918C176.223 26.3335 176.265 26.4585 176.265 26.5835C176.265 26.7085 176.223 26.7918 176.099 26.8752C175.974 26.9585 175.85 27.0002 175.684 27.0002C175.352 27.0002 174.771 26.9585 173.858 26.9168C173.028 26.8752 172.447 26.8335 172.157 26.8335C171.866 26.8335 171.327 26.8752 170.539 26.9168C169.875 27.0002 169.252 27.0418 168.754 27.0418C168.464 27.0002 168.298 26.9585 168.215 26.8752Z" fill="white"></path><path d="M69.9584 41.9998C69.17 41.6248 68.5476 41.0832 68.0911 40.4165C67.6347 39.7498 67.3857 38.9582 67.3857 38.0832C67.3857 37.2082 67.5932 36.4582 68.0496 35.7082C68.5061 34.9582 69.1285 34.3748 69.9999 33.9582C70.8297 33.4998 71.8256 33.2915 72.9459 33.2915C73.3609 33.2915 73.7758 33.3332 74.2322 33.4165C74.6886 33.4998 75.1036 33.6248 75.4355 33.7498C75.6015 33.8332 75.726 33.9582 75.726 34.1248C75.809 34.6248 75.8505 35.1665 75.8505 35.7915C75.8505 35.8748 75.809 35.9165 75.7675 35.9582C75.726 35.9998 75.6845 35.9998 75.6015 35.9998C75.5185 35.9998 75.477 35.9582 75.4355 35.9582C75.394 35.9582 75.3526 35.8748 75.3111 35.7915C75.2281 35.5415 75.1451 35.3332 75.0621 35.1665C74.9791 34.9998 74.8961 34.8332 74.7301 34.7082C74.3152 34.2498 73.6513 34.0415 72.7799 34.0415C72.199 34.0415 71.6596 34.2082 71.2447 34.5415C70.8297 34.8748 70.4563 35.3332 70.2073 35.8748C69.9584 36.4165 69.8339 37.0415 69.8339 37.6665C69.8339 38.9582 70.0828 39.9582 70.5808 40.6665C71.0787 41.3748 71.8256 41.7915 72.7799 41.7915C73.4438 41.7915 73.9833 41.6665 74.3982 41.3748C74.8131 41.0832 75.1866 40.6665 75.4355 40.0415C75.5185 39.8748 75.6015 39.7915 75.726 39.7915C75.809 39.7915 75.8505 39.8332 75.892 39.8332C75.9335 39.8748 75.9335 39.9165 75.9335 39.9998C75.9335 40.4165 75.8505 40.9582 75.643 41.6248C75.6015 41.7915 75.477 41.9582 75.2696 42.0415C74.5227 42.3748 73.5683 42.5832 72.448 42.5832C71.5766 42.5415 70.7052 42.3748 69.9584 41.9998Z" fill="white"></path><path d="M76.5146 42.2085C76.5146 42.1252 76.5561 42.0835 76.5976 42.0418C76.6391 42.0002 76.7221 41.9585 76.8051 41.9168C77.0956 41.8335 77.303 41.7502 77.5105 41.5835C77.718 41.4168 77.8425 41.2502 77.9254 41.0418C78.7968 39.0418 79.5852 37.0418 80.2491 35.0835C80.3736 34.7918 80.4566 34.5002 80.4981 34.2502C80.581 34.0002 80.581 33.8752 80.6225 33.8752C80.996 33.7918 81.3694 33.7085 81.6599 33.5835C81.8259 33.5418 81.9503 33.4585 82.1163 33.3752C82.2408 33.2918 82.3653 33.2085 82.4483 33.1252C82.5312 33.0835 82.5727 33.0835 82.5727 33.0835C82.6142 33.0835 82.6557 33.1252 82.6972 33.1668C82.7802 33.2918 82.8217 33.4168 82.8632 33.5418C83.4441 35.3752 84.0665 37.3335 84.7304 39.4168L85.2283 41.0002C85.3528 41.4168 85.7263 41.7085 86.3072 41.8752C86.3902 41.9168 86.4732 41.9585 86.5147 42.0002C86.5561 42.0418 86.5976 42.0835 86.5976 42.1668C86.5976 42.2502 86.5561 42.2918 86.5147 42.3335C86.4732 42.3752 86.3902 42.3752 86.3487 42.3752C86.1827 42.3752 85.8093 42.3752 85.2698 42.3335C84.6889 42.3335 84.3155 42.2918 84.108 42.2918C83.942 42.2918 83.5686 42.2918 83.0707 42.3335C82.6557 42.3752 82.2823 42.3752 81.9088 42.3752C81.8259 42.3752 81.7429 42.3752 81.7014 42.3335C81.6599 42.2918 81.6184 42.2502 81.6184 42.1668C81.6184 42.0002 81.7014 41.9168 81.9088 41.8752C82.2408 41.7918 82.4483 41.7502 82.6142 41.6252C82.7802 41.5418 82.8217 41.3752 82.8217 41.2085C82.8217 41.1252 82.8217 41.0418 82.7802 41.0002L82.3653 39.4168C82.3653 39.3335 82.3238 39.2918 82.2823 39.2502C82.2408 39.2085 82.1993 39.2085 82.1578 39.2085H79.7927C79.7097 39.2085 79.6682 39.2085 79.6267 39.2502C79.5852 39.2918 79.5852 39.3335 79.5437 39.4168L79.3362 40.0002C79.2947 40.0835 79.2532 40.2502 79.2117 40.4168C79.1703 40.5835 79.1288 40.7085 79.0873 40.8752C79.0458 41.0002 79.0458 41.1252 79.0458 41.2502C79.0458 41.4168 79.1288 41.5418 79.2532 41.6668C79.3777 41.7918 79.6267 41.8335 79.9586 41.9168C80.1661 41.9585 80.2491 42.0835 80.2491 42.2085C80.2491 42.3335 80.1661 42.4168 79.9586 42.4168C79.7512 42.4168 79.5022 42.4168 79.1703 42.3752H78.4234C78.1744 42.3752 77.9254 42.3752 77.6765 42.4168C77.5935 42.4168 77.469 42.4168 77.303 42.4585C77.1371 42.4585 77.0126 42.4585 76.8466 42.4585C76.6391 42.4168 76.5146 42.3335 76.5146 42.2085ZM81.8674 38.4168C81.9918 38.4168 82.0748 38.3752 82.0748 38.3335C82.0748 38.3335 82.0748 38.2918 82.0333 38.1668L81.162 35.1252C81.1205 35.0418 81.1205 35.0002 81.079 35.0002C81.079 35.0002 81.0375 35.0418 80.996 35.1252L79.9586 38.1668C79.9586 38.2085 79.9171 38.2502 79.9171 38.2918C79.9171 38.3335 79.9586 38.3752 80.0001 38.3752C80.0416 38.4168 80.0831 38.4168 80.1661 38.4168H81.8674Z" fill="white"></path><path d="M86.5556 42.3335C86.5142 42.2918 86.4727 42.2502 86.4727 42.2085C86.4727 42.0418 86.5556 41.9585 86.7216 41.9168C87.0951 41.8335 87.3025 41.7502 87.427 41.6252C87.5515 41.5002 87.593 41.3335 87.593 41.0418V34.7918C87.593 34.5002 87.5515 34.2918 87.427 34.1668C87.3025 34.0418 87.0951 33.9585 86.7631 33.8752C86.5556 33.8335 86.4727 33.7502 86.4727 33.5835C86.4727 33.5002 86.5142 33.4585 86.5556 33.4168C86.5971 33.3752 86.6801 33.3752 86.7631 33.3752C87.0951 33.3752 87.427 33.3752 87.8005 33.4168C88.2569 33.4168 88.5888 33.4585 88.7548 33.4585C88.9208 33.4585 89.1698 33.4585 89.5017 33.4168C89.9166 33.3752 90.2901 33.3335 90.705 33.3335C91.8254 33.3335 92.6967 33.5835 93.3606 34.0418C94.0245 34.5002 94.3565 35.1668 94.3565 36.0002C94.3565 36.5835 94.232 37.1252 93.983 37.6252C93.7341 38.1252 93.3606 38.5002 92.8627 38.7918C92.3648 39.0835 91.7424 39.2085 91.037 39.2085C90.788 39.2085 90.622 39.1668 90.4976 39.0835C90.3731 39.0002 90.2901 38.9168 90.2901 38.7918C90.2901 38.7085 90.3316 38.6668 90.3731 38.6252C90.4146 38.5835 90.4976 38.5835 90.539 38.5835C90.622 38.5835 90.705 38.5835 90.788 38.6252C90.871 38.6668 90.9955 38.6668 91.0785 38.6668C91.4104 38.6668 91.6594 38.4585 91.8668 38.0418C92.0328 37.6252 92.1573 37.0835 92.1573 36.3752C92.1573 35.5418 92.0328 34.9168 91.7839 34.5002C91.5349 34.1252 91.2029 33.9168 90.7465 33.9168C90.2486 33.9168 89.9996 34.1668 89.9996 34.6252V40.9585C89.9996 41.2502 90.0826 41.4168 90.2071 41.5418C90.3731 41.6668 90.622 41.7502 91.037 41.8335C91.12 41.8335 91.2029 41.8752 91.2444 41.9168C91.2859 41.9585 91.2859 42.0418 91.2859 42.1252C91.2859 42.2502 91.203 42.3335 91.0785 42.3335L89.8752 42.2918L88.7548 42.2502C88.5888 42.2502 88.2569 42.2502 87.759 42.2918C87.3855 42.3335 87.0536 42.3335 86.6801 42.3335C86.6801 42.4168 86.6386 42.3752 86.5556 42.3335Z" fill="white"></path><path d="M95.0205 42.3332C94.979 42.2915 94.9375 42.2498 94.9375 42.2082C94.9375 42.0415 95.0205 41.9582 95.1865 41.9165C95.5599 41.8332 95.7674 41.7498 95.8919 41.6248C96.0163 41.4998 96.0578 41.3332 96.0578 41.0415V34.7915C96.0578 34.4998 96.0163 34.2915 95.8919 34.1665C95.7674 34.0415 95.5184 33.9582 95.1865 33.8748C95.0205 33.8332 94.9375 33.7082 94.9375 33.5832C94.9375 33.5415 94.979 33.4998 95.0205 33.4582C95.062 33.4165 95.145 33.4165 95.1865 33.4165C95.5184 33.4165 95.8919 33.4165 96.2653 33.4582C96.7632 33.4582 97.0952 33.4998 97.2611 33.4998C97.4271 33.4998 97.7591 33.4998 98.2985 33.4582C98.8379 33.4582 99.2114 33.4165 99.3773 33.4165C99.5433 33.4165 99.5848 33.4998 99.5848 33.6248C99.5848 33.7082 99.5433 33.7498 99.5433 33.7915C99.5018 33.8332 99.4188 33.8748 99.3358 33.8748C98.9624 33.9998 98.7134 34.0832 98.6304 34.2082C98.506 34.3332 98.4645 34.5415 98.4645 34.7915V40.9998C98.4645 41.2498 98.506 41.4582 98.6304 41.5415C98.7549 41.6248 99.0039 41.7498 99.3358 41.8748C99.4188 41.9165 99.5018 41.9165 99.5433 41.9582C99.5848 41.9998 99.5848 42.0415 99.5848 42.1248C99.5848 42.2498 99.5018 42.3332 99.3773 42.3332C99.1699 42.3332 98.7964 42.3332 98.2985 42.2915C97.8006 42.2915 97.4686 42.2498 97.2611 42.2498C97.0537 42.2498 96.7632 42.2498 96.2653 42.2915C95.8919 42.3332 95.5599 42.3332 95.1865 42.3332C95.145 42.4165 95.062 42.3748 95.0205 42.3332Z" fill="white"></path><path d="M102.365 42.3333C102.282 42.2917 102.282 42.25 102.282 42.2083C102.282 42.0417 102.365 41.9583 102.572 41.9167C102.946 41.8333 103.195 41.75 103.319 41.625C103.444 41.5 103.526 41.3333 103.526 41.0417V35.2917C103.526 34.8333 103.526 34.5 103.485 34.375C103.444 34.25 103.402 34.1667 103.319 34.125C103.195 34.0417 103.029 34.0417 102.78 34.0417H102.531C102.24 34.0417 101.95 34.125 101.701 34.25C101.41 34.4167 101.203 34.5833 101.037 34.8333C100.871 35.0417 100.746 35.2083 100.622 35.375C100.497 35.5 100.373 35.5833 100.248 35.5833C100.083 35.5833 100.041 35.5 100.041 35.3333C100.041 35.2083 100.083 35.0833 100.124 34.9583C100.331 34.5833 100.456 34.25 100.539 34C100.622 33.75 100.663 33.4583 100.705 33.125C100.746 32.875 100.871 32.75 101.078 32.75C101.12 32.75 101.203 32.8333 101.327 32.9583C101.41 33.0833 101.493 33.1667 101.535 33.2083C101.618 33.2917 101.784 33.3333 101.991 33.375C102.199 33.4167 102.406 33.4167 102.531 33.4167H107.759C107.966 33.4167 108.132 33.375 108.298 33.375C108.464 33.375 108.547 33.2917 108.63 33.25C108.672 33.2083 108.796 33.125 108.962 33C109.128 32.8333 109.211 32.7917 109.336 32.7917C109.46 32.7917 109.502 32.875 109.502 33C109.502 33.0417 109.502 33.125 109.46 33.25C109.46 33.3333 109.419 33.4583 109.336 33.7083C109.253 33.9167 109.211 34.125 109.211 34.3333C109.17 34.5 109.17 34.6667 109.17 34.8333V35.125C109.17 35.2917 109.17 35.4167 109.128 35.5C109.087 35.5833 109.045 35.625 108.962 35.625C108.879 35.625 108.796 35.5833 108.755 35.5C108.713 35.4167 108.63 35.2917 108.589 35.0833C108.464 34.7083 108.298 34.4583 108.091 34.2917C107.883 34.125 107.593 34.0417 107.219 34.0417H106.68C106.514 34.0417 106.39 34.0833 106.307 34.1667C106.224 34.25 106.141 34.375 106.099 34.5833C106.058 34.7917 106.016 35.0833 106.016 35.5V41.0417C106.016 41.2917 106.099 41.4583 106.224 41.5833C106.348 41.7083 106.597 41.7917 106.97 41.9167C107.053 41.9583 107.136 42 107.178 42.0417C107.219 42.0833 107.261 42.125 107.261 42.2083C107.261 42.2917 107.219 42.3333 107.178 42.375C107.136 42.4167 107.053 42.4167 107.012 42.4167C106.804 42.4167 106.431 42.4167 105.892 42.375L104.854 42.3333C104.688 42.3333 104.356 42.3333 103.858 42.375C103.485 42.4167 103.112 42.4167 102.738 42.4167C102.489 42.4167 102.406 42.375 102.365 42.3333Z" fill="white"></path><path d="M108.091 42.2085C108.091 42.1252 108.132 42.0835 108.174 42.0418C108.215 42.0002 108.298 41.9585 108.381 41.9168C108.672 41.8335 108.879 41.7502 109.087 41.5835C109.294 41.4168 109.419 41.2502 109.502 41.0418C110.373 39.0418 111.161 37.0418 111.825 35.0835C111.95 34.7918 112.033 34.5002 112.074 34.2502C112.157 34.0002 112.157 33.8752 112.199 33.8752C112.572 33.7918 112.946 33.7085 113.236 33.5835C113.402 33.5418 113.527 33.4585 113.692 33.3752C113.817 33.2918 113.941 33.2085 114.024 33.1252C114.107 33.0835 114.149 33.0835 114.149 33.0835C114.19 33.0835 114.232 33.1252 114.273 33.1668C114.356 33.2918 114.398 33.4168 114.439 33.5418C115.02 35.3752 115.643 37.3335 116.307 39.4168L116.805 41.0002C116.929 41.4168 117.302 41.7085 117.883 41.8752C117.966 41.9168 118.049 41.9585 118.091 42.0002C118.132 42.0418 118.174 42.0835 118.174 42.1668C118.174 42.2502 118.132 42.2918 118.091 42.3335C118.049 42.3752 117.966 42.3752 117.925 42.3752C117.759 42.3752 117.385 42.3752 116.846 42.3335C116.265 42.3335 115.892 42.2918 115.684 42.2918C115.518 42.2918 115.145 42.2918 114.647 42.3335C114.232 42.3752 113.858 42.3752 113.485 42.3752C113.402 42.3752 113.319 42.3752 113.278 42.3335C113.236 42.2918 113.195 42.2502 113.195 42.1668C113.195 42.0002 113.278 41.9168 113.485 41.8752C113.817 41.7918 114.024 41.7502 114.19 41.6252C114.356 41.5418 114.398 41.3752 114.398 41.2085C114.398 41.1252 114.398 41.0418 114.356 41.0002L113.941 39.4168C113.941 39.3335 113.9 39.2918 113.858 39.2502C113.817 39.2085 113.775 39.2085 113.734 39.2085H111.369C111.286 39.2085 111.244 39.2085 111.203 39.2502C111.161 39.2918 111.161 39.3335 111.12 39.4168L110.912 40.0002C110.871 40.0835 110.829 40.2502 110.788 40.4168C110.746 40.5835 110.705 40.7085 110.663 40.8752C110.622 41.0002 110.622 41.1252 110.622 41.2502C110.622 41.4168 110.705 41.5418 110.829 41.6668C110.954 41.7502 111.203 41.8335 111.535 41.9168C111.742 41.9585 111.825 42.0835 111.825 42.2085C111.825 42.3335 111.742 42.4168 111.535 42.4168C111.327 42.4168 111.078 42.4168 110.746 42.3752H110C109.751 42.3752 109.502 42.3752 109.253 42.4168C109.17 42.4168 109.045 42.4168 108.879 42.4585C108.713 42.5002 108.589 42.4585 108.423 42.4585C108.215 42.4168 108.091 42.3335 108.091 42.2085ZM113.444 38.4168C113.568 38.4168 113.651 38.3752 113.651 38.3335C113.651 38.3335 113.651 38.2918 113.609 38.1668L112.738 35.1252C112.697 35.0418 112.697 35.0002 112.655 35.0002C112.655 35.0002 112.614 35.0418 112.572 35.1252L111.535 38.1668C111.535 38.2085 111.493 38.2502 111.493 38.2918C111.493 38.3335 111.535 38.3752 111.576 38.3752C111.618 38.4168 111.659 38.4168 111.742 38.4168H113.444Z" fill="white"></path><path d="M118.216 42.3752C118.174 42.3335 118.133 42.2918 118.133 42.2085C118.133 42.1668 118.174 42.0835 118.216 42.0418C118.257 42.0002 118.34 41.9585 118.423 41.9168C118.755 41.8335 118.963 41.7085 119.087 41.6252C119.212 41.5002 119.253 41.3335 119.253 41.0835V34.8335C119.253 34.5418 119.212 34.3335 119.087 34.2085C118.963 34.0835 118.714 34.0002 118.382 33.9168C118.216 33.8752 118.133 33.7502 118.133 33.6252C118.133 33.5835 118.174 33.5418 118.216 33.5002C118.257 33.4585 118.34 33.4585 118.382 33.4585C118.714 33.4585 119.087 33.4585 119.461 33.5002C119.959 33.5002 120.29 33.5418 120.456 33.5418C120.622 33.5418 120.954 33.5418 121.494 33.5002C122.033 33.5002 122.407 33.4585 122.573 33.4585C122.739 33.4585 122.78 33.5418 122.78 33.6668C122.78 33.7502 122.739 33.7918 122.739 33.8335C122.697 33.8752 122.614 33.9168 122.531 33.9168C122.158 34.0418 121.909 34.1252 121.826 34.2502C121.701 34.3752 121.66 34.5835 121.66 34.8335V40.9168C121.66 41.1668 121.701 41.3335 121.826 41.4585C121.909 41.5835 122.116 41.6252 122.324 41.6252H123.651C123.983 41.6252 124.315 41.5002 124.606 41.2502C124.855 41.0002 125.104 40.6252 125.353 40.1252C125.436 39.9168 125.519 39.7918 125.56 39.7502C125.602 39.7085 125.685 39.6668 125.726 39.6668C125.809 39.6668 125.851 39.7085 125.851 39.7502C125.851 39.7918 125.892 39.8752 125.892 39.9585C125.892 40.0002 125.892 40.0418 125.851 40.0835C125.851 40.1252 125.809 40.2085 125.809 40.2502C125.685 40.7502 125.56 41.0835 125.519 41.3335C125.477 41.5418 125.436 41.8335 125.394 42.1252C125.394 42.2918 125.311 42.3752 125.145 42.3752H123.942C122.573 42.3335 121.369 42.3335 120.415 42.3335C120.125 42.3335 119.793 42.3335 119.419 42.3752C118.963 42.3752 118.631 42.4168 118.465 42.4168C118.299 42.4585 118.257 42.4168 118.216 42.3752Z" fill="white"></path><path d="M131.908 42.0002C131.161 41.6252 130.58 41.0835 130.165 40.4168C129.75 39.7502 129.543 38.9585 129.543 38.0835C129.543 37.2502 129.75 36.4585 130.165 35.7502C130.58 35.0002 131.203 34.4168 131.991 34.0002C132.779 33.5418 133.692 33.3335 134.73 33.3335C135.103 33.3335 135.56 33.3752 136.14 33.5002C136.721 33.5835 137.136 33.7085 137.468 33.8335C137.634 33.9168 137.759 34.0418 137.759 34.2085C137.883 34.9585 137.925 35.5002 137.925 35.8752C137.925 35.9585 137.883 36.0418 137.883 36.0835C137.842 36.1252 137.8 36.1668 137.717 36.1668C137.634 36.1668 137.551 36.1252 137.468 36.0835C137.427 36.0418 137.385 35.9585 137.302 35.8752C137.053 35.3752 136.846 35.0002 136.597 34.7502C136.389 34.5418 136.182 34.3752 135.933 34.2918C135.684 34.1668 135.352 34.1252 134.979 34.1252C134.356 34.1252 133.817 34.2918 133.402 34.6252C132.945 34.9585 132.614 35.4168 132.406 35.9585C132.199 36.5002 132.074 37.1252 132.074 37.7502C132.074 39.0418 132.282 40.0418 132.696 40.7918C133.111 41.5418 133.734 41.8752 134.605 41.8752C134.854 41.8752 135.103 41.7918 135.394 41.5835C135.477 41.5002 135.56 41.4168 135.601 41.2502C135.643 41.0835 135.684 40.9168 135.684 40.7085C135.684 40.4168 135.726 40.0002 135.726 39.5002C135.726 39.2502 135.601 39.0835 135.352 39.0002C135.062 38.8752 134.813 38.7918 134.564 38.7502C134.481 38.7085 134.398 38.6668 134.315 38.6252C134.232 38.5835 134.232 38.5002 134.232 38.4168C134.232 38.3335 134.273 38.2918 134.315 38.2502C134.356 38.2085 134.439 38.2085 134.522 38.2085C134.854 38.2085 135.228 38.2085 135.643 38.2502C136.182 38.2502 136.514 38.2918 136.68 38.2918C136.846 38.2918 137.136 38.2918 137.551 38.2502C137.966 38.2502 138.298 38.2085 138.464 38.2085C138.63 38.2085 138.672 38.2918 138.672 38.4168C138.672 38.5002 138.63 38.5835 138.63 38.6252C138.589 38.6668 138.506 38.7085 138.423 38.7085C138.174 38.7918 137.966 38.8752 137.883 38.9585C137.8 39.0418 137.717 39.2085 137.676 39.3752C137.593 39.6668 137.593 40.0418 137.593 40.4168V40.8335C137.593 40.8752 137.634 40.9585 137.676 41.0002L137.759 41.0835C137.842 41.1668 137.883 41.2918 137.883 41.3752C137.883 41.4585 137.842 41.5002 137.8 41.5835C137.759 41.6252 137.676 41.6668 137.593 41.6668C137.51 41.6668 137.385 41.7085 137.219 41.8335C136.804 42.0418 136.389 42.2085 135.933 42.3335C135.477 42.4585 134.937 42.5418 134.356 42.5418C133.443 42.5418 132.655 42.3752 131.908 42.0002Z" fill="white"></path><path d="M146.141 42.2918C145.726 42.0418 145.394 41.7085 145.062 41.2918C144.73 40.8335 144.44 40.4168 144.191 40.0002C143.942 39.5835 143.693 39.1252 143.444 38.5835C143.361 38.3752 143.236 38.2502 143.112 38.1668C143.029 38.0835 142.904 38.0835 142.78 38.0835C142.697 38.0835 142.655 38.1668 142.655 38.3752V41.0418C142.655 41.3335 142.738 41.5002 142.863 41.6252C143.029 41.7502 143.278 41.8335 143.693 41.9168C143.776 41.9168 143.859 41.9585 143.9 42.0002C143.942 42.0418 143.942 42.1252 143.942 42.2085C143.942 42.3335 143.859 42.4168 143.734 42.4168L142.531 42.3752L141.411 42.3335C141.245 42.3335 140.913 42.3335 140.415 42.3752C140.041 42.4168 139.709 42.4168 139.336 42.4168C139.294 42.4168 139.211 42.3752 139.17 42.3752C139.128 42.3335 139.087 42.2918 139.087 42.2502C139.087 42.0835 139.17 42.0002 139.336 41.9585C139.709 41.8752 139.917 41.7918 140.041 41.6668C140.166 41.5418 140.207 41.3752 140.207 41.0835V34.7918C140.207 34.5002 140.166 34.2918 140.041 34.1668C139.917 34.0418 139.709 33.9585 139.377 33.8752C139.17 33.8335 139.087 33.7502 139.087 33.5835C139.087 33.5002 139.128 33.4585 139.17 33.4168C139.211 33.3752 139.294 33.3752 139.377 33.3752C139.709 33.3752 140.083 33.3752 140.456 33.4168C140.83 33.4585 141.12 33.4585 141.328 33.4585C141.494 33.4585 141.743 33.4585 142.074 33.4168C142.489 33.3752 142.863 33.3335 143.278 33.3335C144.357 33.3335 145.186 33.5002 145.767 33.8752C146.348 34.2502 146.639 34.7918 146.639 35.5002C146.639 36.0418 146.473 36.5002 146.099 36.8335C145.726 37.1668 145.311 37.4168 144.813 37.5835C144.772 37.5835 144.772 37.6252 144.772 37.6668C144.772 37.7085 144.772 37.7502 144.813 37.7502C145.269 38.4168 145.684 39.0418 146.058 39.5418C146.431 40.0418 146.805 40.4585 147.178 40.8335C147.469 41.0835 147.759 41.2502 148.05 41.3335C148.34 41.4168 148.713 41.4585 149.128 41.4585C149.253 41.4585 149.336 41.5418 149.336 41.7085C149.336 42.3335 148.755 42.6252 147.593 42.6252C147.095 42.6252 146.556 42.5418 146.141 42.2918ZM144.191 37.1668C144.44 36.8752 144.564 36.4168 144.564 35.8752C144.564 35.2502 144.44 34.7502 144.191 34.4585C143.942 34.1668 143.61 34.0002 143.153 34.0002C142.946 34.0002 142.821 34.0835 142.738 34.2502C142.655 34.4168 142.614 34.7502 142.614 35.2502V37.0835C142.614 37.4168 142.78 37.6252 143.07 37.6252C143.61 37.6252 143.983 37.4585 144.191 37.1668Z" fill="white"></path><path d="M151.743 41.9998C150.996 41.6248 150.415 41.0832 150 40.4165C149.543 39.7498 149.336 38.9582 149.336 38.0832C149.336 37.2082 149.543 36.4582 149.917 35.7082C150.29 34.9582 150.871 34.3748 151.618 33.9582C152.365 33.4998 153.236 33.2915 154.274 33.2915C155.104 33.2915 155.892 33.4998 156.639 33.8748C157.386 34.2498 157.967 34.7915 158.382 35.4582C158.797 36.1248 159.045 36.9165 159.045 37.7915C159.045 38.6665 158.838 39.4165 158.465 40.1665C158.091 40.9165 157.51 41.4998 156.763 41.9165C156.016 42.3748 155.145 42.5832 154.108 42.5832C153.278 42.5415 152.489 42.3748 151.743 41.9998ZM155.975 40.9582C156.348 40.3332 156.556 39.4998 156.556 38.4582C156.556 37.6665 156.473 36.9582 156.265 36.2498C156.058 35.5415 155.809 34.9998 155.394 34.5415C155.021 34.0832 154.523 33.8748 153.942 33.8748C153.236 33.8748 152.697 34.1665 152.323 34.7915C151.95 35.4165 151.784 36.2498 151.784 37.2498C151.784 37.9998 151.867 38.7498 152.075 39.4582C152.282 40.1665 152.531 40.7498 152.946 41.1665C153.319 41.6248 153.817 41.8332 154.357 41.8332C155.062 41.9165 155.601 41.5832 155.975 40.9582Z" fill="white"></path><path d="M161.536 41.5417C160.872 40.875 160.54 39.9583 160.54 38.8333V35C160.54 34.75 160.498 34.5 160.374 34.2917C160.249 34.0833 160.083 33.9583 159.834 33.875C159.585 33.7917 159.461 33.7083 159.461 33.5833C159.461 33.5 159.502 33.4583 159.544 33.4167C159.585 33.375 159.71 33.375 159.793 33.375C160.125 33.375 160.457 33.375 160.789 33.4167C161.204 33.4167 161.494 33.4583 161.66 33.4583C161.826 33.4583 162.158 33.4583 162.614 33.4167C163.112 33.4167 163.444 33.375 163.652 33.375C163.901 33.375 164.025 33.4583 164.025 33.5833C164.025 33.6667 163.984 33.7083 163.901 33.75C163.818 33.7917 163.735 33.8333 163.61 33.875C163.486 33.9167 163.403 33.9583 163.32 34C162.988 34.1667 162.822 34.5417 162.822 35.0833V38.625C162.822 39.5 163.029 40.125 163.403 40.5833C163.776 41.0417 164.274 41.25 164.897 41.25C165.727 41.25 166.307 41 166.722 40.5417C167.137 40.0833 167.303 39.3333 167.303 38.375C167.303 38 167.303 37.7083 167.303 37.5V36.4583C167.303 36.1667 167.303 35.9583 167.303 35.8333C167.303 35.375 167.262 35.0417 167.22 34.8333C167.179 34.625 167.096 34.4167 167.013 34.2917C166.93 34.1667 166.764 34.0417 166.556 33.9583C166.473 33.9167 166.39 33.875 166.307 33.875C166.224 33.8333 166.141 33.7917 166.058 33.7917C165.975 33.7917 165.975 33.7083 165.975 33.6667C165.975 33.5417 166.1 33.4583 166.39 33.4583C166.681 33.4583 166.971 33.4583 167.262 33.5H167.801C167.967 33.5 168.175 33.5 168.382 33.4583C168.631 33.4583 168.839 33.4167 169.046 33.4167C169.253 33.4167 169.378 33.5 169.378 33.625C169.378 33.75 169.253 33.8333 169.005 33.9167C168.714 34 168.465 34.1667 168.341 34.3333C168.216 34.5417 168.133 34.7917 168.133 35.1667C168.092 36.25 168.05 37.4583 168.05 38.75C168.05 39.5 167.884 40.1667 167.552 40.7083C167.22 41.2917 166.764 41.75 166.224 42.0833C165.685 42.4167 165.063 42.5833 164.357 42.5833C163.195 42.5417 162.2 42.2083 161.536 41.5417Z" fill="white"></path><path d="M169.834 42.3335C169.792 42.2918 169.751 42.2502 169.751 42.2085C169.751 42.0418 169.834 41.9585 170 41.9168C170.373 41.8335 170.581 41.7502 170.705 41.6252C170.83 41.5002 170.871 41.3335 170.871 41.0418V34.7918C170.871 34.5002 170.83 34.2918 170.705 34.1668C170.581 34.0418 170.373 33.9585 170.041 33.8752C169.834 33.8335 169.751 33.7502 169.751 33.5835C169.751 33.5002 169.792 33.4585 169.834 33.4168C169.875 33.3752 169.958 33.3752 170.041 33.3752C170.373 33.3752 170.705 33.3752 171.079 33.4168C171.535 33.4168 171.867 33.4585 172.033 33.4585C172.199 33.4585 172.448 33.4585 172.78 33.4168C173.195 33.3752 173.568 33.3335 173.983 33.3335C175.104 33.3335 175.975 33.5835 176.639 34.0418C177.303 34.5002 177.635 35.1668 177.635 36.0002C177.635 36.5835 177.51 37.1252 177.261 37.6252C177.012 38.1252 176.639 38.5002 176.141 38.7918C175.643 39.0835 175.021 39.2085 174.315 39.2085C174.066 39.2085 173.9 39.1668 173.776 39.0835C173.651 39.0002 173.568 38.9168 173.568 38.7918C173.568 38.7085 173.61 38.6668 173.651 38.6252C173.693 38.5835 173.776 38.5835 173.817 38.5835C173.9 38.5835 173.983 38.5835 174.066 38.6252C174.149 38.6668 174.274 38.6668 174.357 38.6668C174.689 38.6668 174.938 38.4585 175.145 38.0418C175.311 37.6252 175.436 37.0835 175.436 36.3752C175.436 35.5418 175.311 34.9168 175.062 34.5002C174.813 34.0835 174.481 33.9168 174.025 33.9168C173.527 33.9168 173.278 34.1668 173.278 34.6252V40.9585C173.278 41.2502 173.361 41.4168 173.485 41.5418C173.651 41.6668 173.9 41.7502 174.315 41.8335C174.398 41.8335 174.481 41.8752 174.523 41.9168C174.564 41.9585 174.564 42.0418 174.564 42.1252C174.564 42.2502 174.481 42.3335 174.357 42.3335L173.153 42.2918L172.033 42.2502C171.867 42.2502 171.535 42.2502 171.037 42.2918C170.664 42.3335 170.332 42.3335 169.958 42.3335C169.917 42.4168 169.875 42.3752 169.834 42.3335Z" fill="white"></path><path d="M47.2614 12.6252V11.9585H35.3527V12.0835L35.2697 14.9168V41.4168H32.0332V42.0418H47.2614V41.4168H43.9834V12.6252H47.2614Z" fill="#5CAAA6"></path><path d="M13.1535 35.417H12.4481C12.2406 38.542 10.2489 41.417 7.88375 41.417H7.71777V42.042H19.751V41.417H18.2572C15.892 41.417 13.4024 38.5003 13.1535 35.417Z" fill="#5CAAA6"></path><path d="M29.461 31.1668L22.0751 11.9585H7.67676V12.6252H12.4485H13.1124L24.3988 42.0418H26.0585L29.8344 32.0418L29.461 31.1668Z" fill="#5CAAA6"></path></g><defs><clipPath id="clip0_1_1224"><rect width="180" height="54" fill="white"></rect></clipPath></defs></svg> 